<?xml version="1.0" encoding="UTF-8"?>
<svg id="Ebene_1" xmlns="http://www.w3.org/2000/svg" width="500" height="71.3" version="1.1" viewBox="0 0 500 71.3">
  <!-- Generator: Adobe Illustrator 29.4.0, SVG Export Plug-In . SVG Version: 2.1.0 Build 152)  -->
  <defs>
    <style>
      .st0 {
        fill: #fe6606;
      }

      .st1 {
        fill: #e4e6ef;
      }
    </style>
  </defs>
  <path class="st0" d="M20.2,55.6c-4.1,0-7.6-.8-10.6-2.5-3-1.7-5.3-4.1-7-7.1-1.6-3.1-2.4-6.7-2.4-10.8s.8-7.7,2.4-10.7c1.6-3,3.9-5.4,6.9-7,3-1.7,6.4-2.5,10.4-2.5s7.1.8,9.8,2.3c2.8,1.5,4.9,3.7,6.4,6.5s2.3,6.1,2.3,9.9v2.9H7.2c.2,4.1,1.5,7.3,3.8,9.6,2.3,2.3,5.3,3.4,9.2,3.4s4.9-.6,6.7-1.7c1.8-1.1,3.1-2.8,3.8-4.9h7.4c-1,4-3,7.2-6.2,9.4-3.2,2.2-7.1,3.3-11.7,3.3ZM7.5,31.1h23.9c-.3-3.2-1.5-5.7-3.6-7.5-2-1.8-4.7-2.7-8-2.7s-6,.9-8.2,2.7c-2.2,1.8-3.6,4.3-4.2,7.5Z"/>
  <path class="st1" d="M48.5,70.5V23.2h-3.8v-7.6h7.8v6h2.7c1.3-2.2,3.1-3.9,5.4-5.1,2.3-1.2,5-1.7,8.1-1.7s7.3.8,10.1,2.5c2.7,1.7,4.8,4,6.3,7.1,1.5,3,2.2,6.7,2.2,10.8s-.7,7.8-2.2,10.8c-1.4,3-3.5,5.4-6.2,7.1s-5.9,2.5-9.6,2.5-5.8-.6-8.1-1.9c-2.3-1.2-4-3-5.2-5.3h-.3v22h-7.3ZM67.6,49.4c3.9,0,7-1.2,9.1-3.7,2.2-2.5,3.2-5.9,3.2-10.4s-1.1-7.9-3.2-10.4c-2.2-2.5-5.2-3.7-9.1-3.7s-6.4,1-8.6,3.1c-2.2,2-3.2,4.8-3.2,8.2v5.7c0,3.4,1.1,6.1,3.2,8.2s5,3.1,8.6,3.1Z"/>
  <path class="st1" d="M98,54.8v-31.6h-3.8v-7.6h7.8v7.3h2.7c1.1-2.4,2.8-4.3,5.1-5.6,2.3-1.3,5-2,8.1-2h3.2v6.3h-3.6c-3.9,0-6.9,1.2-9.1,3.5-2.1,2.3-3.2,5.4-3.2,9.3v20.4h-7.2Z"/>
  <path class="st1" d="M138.3,55.6c-4.4,0-7.9-1.1-10.5-3.3-2.5-2.2-3.8-5.1-3.8-8.7s1.3-6.6,3.8-8.7c2.5-2.1,6.2-3.1,10.9-3.1h13.4v-1.8c0-6-3.3-9.1-10-9.1s-8.7,2-9.9,6.1h-7.4c.7-3.9,2.5-6.9,5.6-9,3.1-2.1,7-3.2,11.8-3.2s9.6,1.3,12.5,3.9c2.9,2.6,4.3,6.3,4.3,11.1v17.4h3.5v7.6h-7.8v-6h-2.7c-1.3,2.1-3.2,3.7-5.6,4.9-2.4,1.2-5.1,1.8-8.2,1.8ZM139.3,49.7c2.4,0,4.5-.5,6.5-1.4,2-1,3.5-2.3,4.6-3.9,1.1-1.7,1.7-3.5,1.7-5.4v-1.8h-12.9c-5.5,0-8.2,2-8.2,6.1s.7,3.5,2.2,4.7,3.5,1.7,6.1,1.7Z"/>
  <path class="st1" d="M165,54.8l15.5-20.1-14.8-19.1h8.1l11.1,14.2,11.1-14.2h8l-14.8,19.1,15.5,20.1h-8.3l-11.8-15.2-11.7,15.2h-8.1Z"/>
  <path class="st1" d="M214.1,10.3c-1.2,0-2.3-.4-3.1-1.3-.9-.9-1.3-1.9-1.3-3.1s.4-2.3,1.3-3.1c.9-.9,1.9-1.3,3.1-1.3s2.3.4,3.1,1.3,1.3,1.9,1.3,3.1-.4,2.3-1.3,3.1-1.9,1.3-3.1,1.3ZM210.4,54.8V15.7h7.3v39.2h-7.3Z"/>
  <path class="st1" d="M243.9,55.6c-5.4,0-9.7-1.1-12.9-3.4-3.1-2.3-4.9-5.4-5.2-9.5h7.2c.3,2.4,1.3,4.2,3.1,5.3,1.8,1.1,4.4,1.7,7.9,1.7,6.1,0,9.1-1.9,9.1-5.7s-.5-2.8-1.4-3.6c-.9-.8-2.5-1.5-4.7-1.9l-8.6-1.6c-7.3-1.3-10.9-4.8-10.9-10.4s1.4-6.5,4.1-8.6c2.7-2.1,6.5-3.1,11.2-3.1s8.8,1.1,11.7,3.2c2.9,2.1,4.5,5.1,4.9,9h-7.1c-.4-2.2-1.4-3.8-3-4.8-1.6-1-3.8-1.6-6.7-1.6s-4.7.5-6.2,1.4-2.2,2.2-2.2,4,.5,2.4,1.4,3.2c.9.8,2.4,1.3,4.5,1.7l8.6,1.6c3.8.7,6.6,1.9,8.4,3.7,1.8,1.8,2.7,4.2,2.7,7.2s-1.4,6.8-4.2,8.9c-2.8,2.1-6.8,3.2-12,3.2Z"/>
  <path class="st1" d="M271.2,55.6c-1.4,0-2.7-.5-3.7-1.5-1-1-1.5-2.2-1.5-3.7s.5-2.7,1.5-3.7c1-1,2.2-1.5,3.7-1.5s2.7.5,3.7,1.5c1,1,1.5,2.2,1.5,3.7s-.5,2.7-1.5,3.7c-1,1-2.2,1.5-3.7,1.5Z"/>
  <path class="st1" d="M300.3,55.6c-3.9,0-7.3-.8-10-2.5-2.8-1.7-4.9-4-6.3-7.1-1.5-3-2.2-6.7-2.2-10.8s.7-7.8,2.2-10.8c1.4-3,3.5-5.4,6.2-7.1,2.7-1.7,5.9-2.5,9.6-2.5s5.8.6,8.1,1.8c2.3,1.2,4,3,5.2,5.3h.3V0h7.3v47.3h3.8v7.6h-7.8v-6h-2.7c-1.3,2.2-3.1,3.9-5.4,5.1-2.3,1.2-5,1.7-8.1,1.7ZM301.4,49.4c3.6,0,6.4-1,8.6-3.1,2.2-2,3.2-4.8,3.2-8.2v-5.7c0-3.4-1.1-6.1-3.2-8.2-2.2-2-5-3.1-8.6-3.1s-7,1.2-9.1,3.7c-2.2,2.5-3.2,5.9-3.2,10.4s1.1,7.9,3.2,10.4c2.2,2.5,5.2,3.7,9.1,3.7Z"/>
  <path class="st1" d="M336.8,10.3c-1.2,0-2.3-.4-3.1-1.3-.9-.9-1.3-1.9-1.3-3.1s.4-2.3,1.3-3.1c.9-.9,1.9-1.3,3.1-1.3s2.3.4,3.1,1.3,1.3,1.9,1.3,3.1-.4,2.3-1.3,3.1-1.9,1.3-3.1,1.3ZM333.2,54.8V15.7h7.3v39.2h-7.3Z"/>
  <path class="st1" d="M368.4,71.3c-5.4,0-9.9-1.1-13.3-3.4-3.4-2.3-5.4-5.4-6-9.4h7.7c1.2,4.4,5,6.7,11.4,6.7s7.2-1,9.4-2.9c2.2-1.9,3.3-4.7,3.3-8.3v-6.3h-.3c-1,2.3-2.7,4.1-5,5.3-2.3,1.2-4.9,1.9-8,1.9s-6.9-.8-9.7-2.4c-2.7-1.6-4.9-3.9-6.3-6.9-1.5-3-2.2-6.5-2.2-10.6,0-6.1,1.7-11,5-14.6,3.3-3.6,7.8-5.4,13.6-5.4s5.8.6,8.1,1.7,4,2.8,5.4,5.1h2.7v-6h7.8v7.6h-3.8v31.1c0,5.4-1.7,9.5-5.2,12.5-3.5,3-8.3,4.5-14.6,4.5ZM369.3,48.4c3.4,0,6.2-1,8.3-3s3.2-4.7,3.2-8v-5.2c0-3.3-1.1-6-3.2-8-2.1-2-4.9-3-8.3-3s-7.1,1.2-9.3,3.6c-2.2,2.4-3.4,5.7-3.4,10s1.1,7.6,3.4,10c2.2,2.4,5.3,3.6,9.3,3.6Z"/>
  <path class="st1" d="M404.5,10.3c-1.2,0-2.3-.4-3.1-1.3-.9-.9-1.3-1.9-1.3-3.1s.4-2.3,1.3-3.1c.9-.9,1.9-1.3,3.1-1.3s2.3.4,3.1,1.3,1.3,1.9,1.3,3.1-.4,2.3-1.3,3.1-1.9,1.3-3.1,1.3ZM400.8,54.8V15.7h7.3v39.2h-7.3Z"/>
  <path class="st1" d="M428.9,54.8c-2.1,0-3.7-.5-4.9-1.6-1.2-1.1-1.7-2.7-1.7-4.8v-27.2h-7.3v-5.6h7.4V3.9h7.2v11.8h10.3v5.6h-10.2v27.8h11.2v5.7h-11.9Z"/>
  <path class="st1" d="M459.3,55.6c-4.4,0-7.9-1.1-10.5-3.3-2.5-2.2-3.8-5.1-3.8-8.7s1.3-6.6,3.8-8.7c2.5-2.1,6.2-3.1,10.9-3.1h13.4v-1.8c0-6-3.3-9.1-10-9.1s-8.7,2-9.9,6.1h-7.4c.7-3.9,2.5-6.9,5.6-9,3.1-2.1,7-3.2,11.8-3.2s9.6,1.3,12.5,3.9c2.9,2.6,4.3,6.3,4.3,11.1v17.4h3.5v7.6h-7.8v-6h-2.7c-1.3,2.1-3.2,3.7-5.6,4.9-2.4,1.2-5.1,1.8-8.2,1.8ZM460.3,49.7c2.4,0,4.5-.5,6.5-1.4,2-1,3.5-2.3,4.6-3.9,1.1-1.7,1.7-3.5,1.7-5.4v-1.8h-12.9c-5.5,0-8.2,2-8.2,6.1s.7,3.5,2.2,4.7,3.5,1.7,6.1,1.7Z"/>
  <path class="st1" d="M492.6,54.8V0h7.3v54.8h-7.3Z"/>
</svg>