<svg xmlns="http://www.w3.org/2000/svg" xmlns:xlink="http://www.w3.org/1999/xlink" width="70" height="70" viewBox="0 0 70 70">
  <defs>
    <clipPath id="clip-path">
      <rect id="Rechteck_128" data-name="Rechteck 128" width="26.2" height="50" fill="none"/>
    </clipPath>
  </defs>
  <g id="Gruppe_154" data-name="Gruppe 154" transform="translate(-1543 -551)">
    <rect id="Rechteck_131" data-name="Rechteck 131" width="70" height="70" rx="35" transform="translate(1543 551)" fill="#d8d9e3"/>
    <g id="Gruppe_148" data-name="Gruppe 148" transform="translate(1565 561)">
      <g id="Gruppe_147" data-name="Gruppe 147" transform="translate(0 0)" clip-path="url(#clip-path)">
        <path id="Pfad_67" data-name="Pfad 67" d="M12.05,1.782l.206.2c0-.038,0-.087-.006-.108,0-.055-.123-.08-.2-.089" transform="translate(1.758 0.259)" fill="#262626"/>
        <path id="Pfad_68" data-name="Pfad 68" d="M10.383,1.929l0,.025.2-.172Z" transform="translate(1.515 0.259)" fill="#262626"/>
        <path id="Pfad_69" data-name="Pfad 69" d="M15.933,3.756a.82.82,0,0,0-.11-.307Z" transform="translate(2.309 0.503)" fill="#262626"/>
        <path id="Pfad_70" data-name="Pfad 70" d="M1.186,33.405C.286,36.868.425,40.88.594,44.467c.191,4.071,1.462,4.78,5.293,5.331l3.73.2h6.535q2-.143,4.021-.2c2.633-.3,4.752-1.225,5.032-4.149a59.44,59.44,0,0,0,.086-7.682c-.12-3.117-.424-5.711-2.754-7.925a12.022,12.022,0,0,0-5.089-2.353c0-.644.024-2,.042-2.4a8.363,8.363,0,0,0,4.863-6.15c.04-.193.073-.387.1-.582a3.367,3.367,0,0,0,3.38-1.8c.4-.926.322-4.423.195-5.5a2.986,2.986,0,0,0-3.5-2.7c-.029-.266-.066-.528-.116-.786A9.762,9.762,0,0,0,7.633,1.548l-.2.151A10.462,10.462,0,0,0,3.653,7.223L3.272,8.574c-.142-.008-.284,0-.425,0V10.5a3.427,3.427,0,0,1,.637-.008v6.032c-.23,0-.443.015-.637.016v1.79a6.581,6.581,0,0,0,.737,0,8.154,8.154,0,0,0,5.028,6.836v2.568a9.958,9.958,0,0,0-3.587,1.236c-.4.348-.967.625-1.393,1.019-.26.242-.647.691-1.322,1.492a8.187,8.187,0,0,0-1.123,1.924m21.2-22.918c.571-.025,1.44-.032,1.643.62a28.246,28.246,0,0,1,.072,4.462c-.1,1.116-.793.967-1.715.95ZM10.321,25.77a17.455,17.455,0,0,0,5.228,0v1.91H10.321Zm10.032,6.161c.888-.323.714-.78,1.513.239,2.5,3.192.834,9.777,1.328,13.66-.121,1.373-1.17,1.574-2.3,1.825a46.525,46.525,0,0,1-15.42.1c-1.147-.211-2.558-.347-2.8-1.726.209-3.43-.269-7.17,0-10.563a7.207,7.207,0,0,1,1.227-3.2c2.848-4.064,7.9-2.629,12.144-2.878a3.169,3.169,0,0,0,4.306,2.538" transform="translate(0.069 -0.001)" fill="#262626"/>
        <path id="Pfad_71" data-name="Pfad 71" d="M21.632,28.29c-.9-1.423-2.453-2.381-5.854-2.628-4.243.174-9.3-1.186-12.144,2.877a7.212,7.212,0,0,0-1.227,3.2c-.268,3.393.21,7.133,0,10.563.242,1.379,1.652,1.515,2.8,1.726a46.524,46.524,0,0,0,15.42-.1c1.128-.25,2.176-.453,2.3-1.824-.493-3.883,1.208-9.857-1.293-13.81" transform="translate(0.339 3.731)" fill="#e3e9ee"/>
        <path id="Pfad_72" data-name="Pfad 72" d="M20.086,32.106a3.526,3.526,0,0,0-3.469-3.469c-2.828-.22-5.964.149-8.823.031A3.5,3.5,0,0,0,4.6,31.91c-.14,1.569-.193,3.583,1.855,3.671,3.794-.259,8.022.335,11.765,0,1.982-.18,1.994-1.839,1.866-3.471" transform="translate(0.663 4.167)" fill="#262626"/>
        <path id="Pfad_73" data-name="Pfad 73" d="M10.432,39.181l6.408-.016a.851.851,0,0,1-.1,1.695c-1.843.258-4.218-.168-6.118,0a.869.869,0,0,1-.186-1.682" transform="translate(1.437 5.713)" fill="#262626"/>
        <path id="Pfad_74" data-name="Pfad 74" d="M10.433,36.2l6.511-.019a.869.869,0,0,1-.205,1.7c-1.769.27-4.178-.181-6.017,0a.864.864,0,0,1-.289-1.679" transform="translate(1.437 5.278)" fill="#262626"/>
        <path id="Pfad_75" data-name="Pfad 75" d="M6.656,36.2c.658-.147,1.976-.174,2.036.739.062.944-1.062,1.038-1.747.94A.869.869,0,0,1,6.656,36.2" transform="translate(0.89 5.27)" fill="#272727"/>
        <path id="Pfad_76" data-name="Pfad 76" d="M6.657,39.188c.576-.168,1.884-.117,2.025.657.253,1.391-2.691,1.464-2.6.083a1.2,1.2,0,0,1,.571-.739" transform="translate(0.888 5.705)" fill="#272727"/>
        <path id="Pfad_77" data-name="Pfad 77" d="M6.089,31.589a1.889,1.889,0,0,1,1.67-1.447c2.722.125,5.642-.2,8.339-.015a1.937,1.937,0,0,1,1.839.976,4.485,4.485,0,0,1,.218.587V33.5A.994.994,0,0,1,18,33.65H6.24a.994.994,0,0,1-.151-.151,14.958,14.958,0,0,1,0-1.91" transform="translate(0.883 4.386)" fill="#50d5be"/>
        <path id="Pfad_78" data-name="Pfad 78" d="M7.216,3.692V6.256a.832.832,0,0,0,.8.7c.456,0,.911-.372.911-.706a25.558,25.558,0,0,1,.046-3.771,5.811,5.811,0,0,1,2.465-.7V4.73c0,.212.036.714.822.714s.888-.532.888-.8V1.782a6.4,6.4,0,0,1,2.6.72c.111.178.013,3.038.013,3.563a.948.948,0,0,0,.837.976,1.017,1.017,0,0,0,.877-.785V3.692a7.81,7.81,0,0,1,2.488,4.4,50.529,50.529,0,0,1,0,10.1c-1.431,8.175-14.71,7.784-15.354-.779C4.428,15.09,4.6,11.406,4.6,9.068A7.274,7.274,0,0,1,7.216,3.692" transform="translate(0.66 0.259)" fill="#e3e9ee"/>
        <path id="Pfad_79" data-name="Pfad 79" d="M3.182,9.153a3.529,3.529,0,0,0-.637.008V15.2c.194,0,.406-.014.637-.016Z" transform="translate(0.371 1.333)" fill="#cdd6dc"/>
        <path id="Pfad_80" data-name="Pfad 80" d="M19.6,9.153c.571-.025,1.439-.032,1.642.62a27.975,27.975,0,0,1,.072,4.462c-.1,1.116-.792.967-1.714.95Z" transform="translate(2.859 1.334)" fill="#cdd6dc"/>
        <path id="Pfad_81" data-name="Pfad 81" d="M14.295,22.489V24.4H9.066v-1.91a17.463,17.463,0,0,0,5.229,0" transform="translate(1.323 3.28)" fill="#cdd6dc"/>
        <path id="Pfad_82" data-name="Pfad 82" d="M9.061,14.453a35.582,35.582,0,0,1,5.506-.024c2.628.3,1.948,4.8-.411,5.119a28.677,28.677,0,0,1-4.415.009c-2.515-.283-3.046-4.708-.68-5.1" transform="translate(1.1 2.091)" fill="#262626"/>
        <path id="Pfad_83" data-name="Pfad 83" d="M9.22,15.908h4.926c.3,0,.2,1.508-.423,1.688-1.211-.054-2.617.144-3.806.028-1.1-.108-.932-1.715-.7-1.715" transform="translate(1.32 2.32)" fill="#2b56ae"/>
        <path id="Pfad_84" data-name="Pfad 84" d="M14.227,8.478c3.5-.5,4.022,4.551.956,5.077-3.563.611-4.193-4.616-.956-5.077" transform="translate(1.768 1.231)" fill="#262626"/>
        <path id="Pfad_85" data-name="Pfad 85" d="M14.207,9.962a.866.866,0,0,1,.457,1.67.866.866,0,0,1-.457-1.67" transform="translate(1.987 1.449)" fill="#4fd4bd"/>
        <path id="Pfad_86" data-name="Pfad 86" d="M8.161,8.478c3.516-.605,4.173,4.613.956,5.077-3.508.505-4.05-4.546-.956-5.077" transform="translate(0.895 1.229)" fill="#262626"/>
        <path id="Pfad_87" data-name="Pfad 87" d="M8.246,9.963a.857.857,0,1,1,.087,1.688.857.857,0,0,1-.087-1.688" transform="translate(1.11 1.449)" fill="#4fd4bd"/>
        <path id="Pfad_88" data-name="Pfad 88" d="M3.722,6.776c-.049.258-.088.519-.116.786a2.985,2.985,0,0,0-3.5,2.7c-.127,1.076-.2,4.573.194,5.5a3.369,3.369,0,0,0,3.38,1.8c.028.195.062.39.1.582" transform="translate(0 0.988)" fill="#262626"/>
        <path id="Pfad_89" data-name="Pfad 89" d="M3.493,15.176c-.922.016-1.612.165-1.714-.95a27.99,27.99,0,0,1,.072-4.463c.2-.652,1.071-.644,1.642-.619Z" transform="translate(0.252 1.332)" fill="#262626"/>
        <path id="Pfad_90" data-name="Pfad 90" d="M3.493,9.144c-.571-.024-1.439-.032-1.642.62a27.975,27.975,0,0,0-.072,4.462c.1,1.116.792.967,1.714.95Z" transform="translate(0.252 1.332)" fill="#cdd6dc"/>
      </g>
    </g>
  </g>
</svg>
