<svg xmlns="http://www.w3.org/2000/svg" xmlns:xlink="http://www.w3.org/1999/xlink" width="70" height="70" viewBox="0 0 70 70">
  <defs>
    <clipPath id="clip-path">
      <rect id="Rechteck_127" data-name="Rechteck 127" width="24.149" height="50" fill="none"/>
    </clipPath>
  </defs>
  <g id="Gruppe_153" data-name="Gruppe 153" transform="translate(-1244 -536)">
    <rect id="Rechteck_125" data-name="Rechteck 125" width="70" height="70" rx="35" transform="translate(1244 536)" fill="#d8d9e3"/>
    <g id="Gruppe_146" data-name="Gruppe 146" transform="translate(1267 546)">
      <g id="Gruppe_145" data-name="Gruppe 145" transform="translate(0 0)" clip-path="url(#clip-path)">
        <path id="Pfad_57" data-name="Pfad 57" d="M17.781,26.412l-1.589-.452c0-.186,1.183-.849,1.412-1.025a9.391,9.391,0,0,0,2.952-4.164c.067-.179.2-.839.239-.882a3.464,3.464,0,0,1,.764-.259c.828-.094,2.047-1.712,2.17-2.492.08-.492.126-4.145.079-7.242.039-2.162-.8-4.294-2.958-4.989-1.7-2.691-4.433-4.271-7.672-3.615l-3.493.491c-2.247.207-5.631.28-7.118-1.662C.7-.484.335,1.309.156,2.752A6.787,6.787,0,0,0,.793,6.381C-.128,8.9-.056,11.841.1,14.536c.12,2.139.419,4.9,2.874,5.506a8.959,8.959,0,0,0,4.314,5.845,8.856,8.856,0,0,0-5.41,3.023C.074,31.129.016,33.256,0,36.05q.142,6.092.181,12.156a2.26,2.26,0,0,0,1.976,1.782H4.2a2.074,2.074,0,0,0,1.431-.64,5.89,5.89,0,0,0,3.149.64h6.337c1.887,0,3.343-.186,4.267-2.047A7.2,7.2,0,0,0,19.7,46.6V33.628l-.094-.008-.1-.2.194.067v.144l3.328.271c-.1.4-.192.811-.27,1.226,2.441-2.285-6.139-5.736-4.979-8.714M2.11,2.42a6.055,6.055,0,0,1,.955.508,14.621,14.621,0,0,0,6.451.76c3-.228,6-1.635,8.531.731.529.494,1.333,1.874,1.757,2.141.509.32.91.126,1.411.733a4.481,4.481,0,0,1,.729,2v1.9a7.924,7.924,0,0,0-1.44-.363c-.441-.02-.8.254-1.242-.122A4.58,4.58,0,0,1,18.43,9.3c-.213-.669-.077-1.925-.529-2.3-.583-.48-.852-.043-1.319.147-2.71,1.105-8.342.879-11.246.331A3.981,3.981,0,0,1,2.11,2.42m.147,5.46a5.759,5.759,0,0,0,1.559.878c-.223.274-.617,2.053-.7,2.126a8.759,8.759,0,0,0-1.152.309A12.243,12.243,0,0,1,2.256,7.88M5.1,20.674a16.3,16.3,0,0,0-.662-2.165c-.381-.4-1.2,0-1.816-.912a7.4,7.4,0,0,1-.655-3.715,1.692,1.692,0,0,1,.9-1.246c.6-.252,1.193.153,1.63-.418s.276-2.484,1.13-3.049A29.9,29.9,0,0,0,16.68,8.951c0,1.165,1.358,3.424,2.506,3.684.871.2,1.94-.658,2.58.735a6.625,6.625,0,0,1-.4,4.113c-.521.9-.842.6-1.587.85-.577.193-.759,1.71-1,2.314C16.432,26.522,7.412,26.6,5.1,20.674M9.468,26.4a10.279,10.279,0,0,0,4.97,0c.375,3.744-5.351,3.728-4.97,0m13.281,5.385c-.193.059.542.157.323.147-1.505-.063-2.909-.267-4.395-.268a.923.923,0,0,0-.929,1.02l0,14.04c-.278,1.75-1.944,1.441-3.265,1.512-1.512.082-3.059.161-4.586.1a16.323,16.323,0,0,1-2.6-.223,1.655,1.655,0,0,1-1.145-1.39c-.309-2.891.238-6.306-.006-9.254a.833.833,0,0,0-1.576-.321c-.2,3.48.029,7.011-.117,10.508-.249,1.053-2.543.968-2.5-.246.259-4.51-.33-9.377.007-13.845a6.333,6.333,0,0,1,5.882-5.809,4.25,4.25,0,0,0,8.209-.1l5.106,1.122c.042.182.512.5.411.589-.391.338,1.679.705,1.265,1.089-.252.234.037,1.286-.088,1.324" transform="translate(0 0)" fill="#262626"/>
        <path id="Pfad_58" data-name="Pfad 58" d="M21.647,8.9c.033,0,.072,0,.1-.008-.033,0-.068,0-.1.008" transform="translate(2.401 0.986)" fill="#262626"/>
        <path id="Pfad_59" data-name="Pfad 59" d="M17.56,30.081l.1.2.094.008v-.143Z" transform="translate(1.948 3.336)" fill="#262626"/>
        <path id="Pfad_60" data-name="Pfad 60" d="M16.487,8.057c0,1.164,1.358,3.423,2.506,3.684.871.2,1.94-.658,2.58.735a6.625,6.625,0,0,1-.4,4.113c-.521.9-.842.6-1.587.849-.577.194-.759,1.711-1,2.315-2.343,5.875-11.362,5.951-13.67.027a16.279,16.279,0,0,0-.662-2.164c-.381-.4-1.2,0-1.816-.912a7.4,7.4,0,0,1-.655-3.715,1.69,1.69,0,0,1,.9-1.246c.6-.252,1.193.153,1.63-.418S4.58,8.84,5.434,8.274a29.881,29.881,0,0,0,11.052-.217" transform="translate(0.194 0.894)" fill="#fbac9c"/>
        <path id="Pfad_61" data-name="Pfad 61" d="M21.747,10.952a7.935,7.935,0,0,0-1.441-.363c-.441-.019-.8.254-1.241-.122a4.587,4.587,0,0,1-.832-1.41c-.213-.669-.077-1.926-.53-2.3-.583-.479-.851-.043-1.319.148-2.708,1.1-8.342.878-11.245.33A3.981,3.981,0,0,1,1.912,2.178a6.087,6.087,0,0,1,.954.508,14.623,14.623,0,0,0,6.451.76c3-.228,6-1.635,8.531.731.529.494,1.333,1.875,1.757,2.142.509.319.91.126,1.412.732a4.5,4.5,0,0,1,.729,2Z" transform="translate(0.198 0.242)" fill="#b16356"/>
        <path id="Pfad_62" data-name="Pfad 62" d="M13.495,23.764c.375,3.744-5.351,3.728-4.969,0a10.274,10.274,0,0,0,4.969,0" transform="translate(0.944 2.636)" fill="#f1a396"/>
        <path id="Pfad_63" data-name="Pfad 63" d="M3.62,7.971C3.4,8.245,3,10.023,2.92,10.1a8.632,8.632,0,0,0-1.152.309,12.255,12.255,0,0,1,.293-3.314,5.762,5.762,0,0,0,1.559.879" transform="translate(0.195 0.787)" fill="#9f584e"/>
        <path id="Pfad_64" data-name="Pfad 64" d="M14.394,24.885a6.33,6.33,0,0,1,5.882,5.809c.337,4.468-.252,9.334.007,13.844.046,1.214-2.248,1.3-2.5.246-.146-3.5.083-7.027-.116-10.508a.834.834,0,0,0-1.577.322" transform="translate(1.596 2.76)" fill="#e94458"/>
        <path id="Pfad_65" data-name="Pfad 65" d="M15.668,35.588c1.158.069-.026,11.552.917,11.057a2.077,2.077,0,0,0,1.432.64h2.046A2.261,2.261,0,0,0,22.04,45.5q.038-6.064.181-12.155c-.016-2.8-.074-4.922-1.873-7.142-1.441-1.779-3.587-2.354-5.772-2.84" transform="translate(1.617 2.592)" fill="#262626"/>
        <path id="Pfad_66" data-name="Pfad 66" d="M21.688,30.694a6.331,6.331,0,0,0-5.882-5.809V25.1A4.246,4.246,0,0,1,7.662,25a6.331,6.331,0,0,0-5.883,5.809c-.337,4.467.253,9.334-.006,13.844-.047,1.213,2.248,1.3,2.5.246.146-3.5-.082-7.027.117-10.508a.833.833,0,0,1,1.576.322c.243,2.947-.3,6.362.007,9.254a1.656,1.656,0,0,0,1.144,1.39,16.325,16.325,0,0,0,2.6.222c1.528.06,3.074-.019,4.587-.1,1.32-.071,2.986.239,3.264-1.511l0-9.567a.817.817,0,0,1,1.515-.12c.2,3.482-.029,7.012.117,10.508.248,1.054,2.543.969,2.5-.246-.259-4.51.331-9.376-.006-13.844" transform="translate(0.185 2.76)" fill="#fe6606"/>
      </g>
    </g>
  </g>
</svg>
