<svg xmlns="http://www.w3.org/2000/svg" xmlns:xlink="http://www.w3.org/1999/xlink" width="70" height="70" viewBox="0 0 70 70">
  <defs>
    <clipPath id="clip-path">
      <rect id="Rechteck_129" data-name="Rechteck 129" width="42.492" height="45" fill="none"/>
    </clipPath>
  </defs>
  <g id="Gruppe_152" data-name="Gruppe 152" transform="translate(-1411 -551)">
    <rect id="Rechteck_130" data-name="Rechteck 130" width="70" height="70" rx="35" transform="translate(1411 551)" fill="#d8d9e3"/>
    <g id="Gruppe_151" data-name="Gruppe 151" transform="translate(1425.754 563.5)">
      <g id="Gruppe_150" data-name="Gruppe 150" transform="translate(0 0)" clip-path="url(#clip-path)">
        <path id="Pfad_91" data-name="Pfad 91" d="M24.224,26.4c.039.164-.055.17-.146.248-.353.3-.845.545-1.216.89-.227.211-1.043,1.268-1.155,1.3a2.554,2.554,0,0,1-.685.015c-1.355-.058-2.875-.349-4.211-.35a.831.831,0,0,0-.837.918l0,12.637c-.25,1.574-1.75,1.3-2.938,1.36-1.361.074-2.753.145-4.127.091a14.692,14.692,0,0,1-2.344-.2,1.489,1.489,0,0,1-1.031-1.25c-.278-2.6.214-5.676,0-8.329a.75.75,0,0,0-1.419-.29c-.179,3.132.026,6.31-.1,9.457-.223.948-2.289.871-2.247-.221.233-4.059-.3-8.439,0-12.461a5.7,5.7,0,0,1,5.294-5.227A3.825,3.825,0,0,0,14.45,24.9Z" transform="translate(0 -0.004)" fill="#fe6606"/>
        <path id="Pfad_92" data-name="Pfad 92" d="M39.286,17.555a2.938,2.938,0,0,0,2.948-1.568,16.739,16.739,0,0,0,.17-4.8,2.606,2.606,0,0,0-3.057-2.358A8.5,8.5,0,0,0,26.354,2.713,8.136,8.136,0,0,0,24.3,4.667a1.163,1.163,0,0,0-.214,1.083c.092.2.21.35.4.2-.087.282.3.344.53.3A2.7,2.7,0,0,0,26.505,4.81a5.107,5.107,0,0,0-.175,2.135c.007.055.107.084.175.1-.277.142-.055.361.149.492a.961.961,0,0,0,1.525-.8L28.16,3.869a5.562,5.562,0,0,1,1.8-.531l.053-.045a15.281,15.281,0,0,0,0,1.985c.007.055.107.083.175.1-.331.226.256.761.538.828.3.072,1.281-.193.954-.565l.175-.126c.04-.114.025-1.764,0-2.2l.009.008A5.7,5.7,0,0,1,33.8,3.9l-.012,2.817c.056.71.522,1.168,1.255.945.265-.081.735-.389.415-.614a.288.288,0,0,0,.175-.128,6.511,6.511,0,0,0-.079-1.841l.029.079c1.587,1.5,1.932,3.293,2.035,5.357.117,2.34.318,6.582-.744,8.659-1.9,3.716-7.539,4.254-10.536,1.6-1.852-1.639-1.941-3.469-2.019-5.784a26.666,26.666,0,0,1,.4-7.043c.151-.415-.091-1.325-.575-1.12l-.042-.2c-1-.6-1.472,1.608-1.547,2.219a4.719,4.719,0,0,0-1.12.07c.037-1.948-.716-3.869-2.664-4.5a6.477,6.477,0,0,0-6.9-3.252L8.717,1.6c-2.024.185-5.069.252-6.406-1.5C.632-.436.3,1.178.14,2.476A6.112,6.112,0,0,0,.715,5.743a18.735,18.735,0,0,0-.628,7.34c.108,1.925.377,4.412,2.587,4.954A8.056,8.056,0,0,0,6.556,23.3a7.976,7.976,0,0,0-4.87,2.72C.067,28.015.014,29.93,0,32.445q.127,5.482.163,10.939a2.032,2.032,0,0,0,1.78,1.6H3.784a1.864,1.864,0,0,0,1.288-.575,5.312,5.312,0,0,0,2.835.575h5.7c1.7.005,3.008-.166,3.841-1.843a2.237,2.237,0,0,0,.282-1.2V30.265l3,.244a33.4,33.4,0,0,0-.517,9.651c.167,3.552,1.276,4.17,4.618,4.651l3.254.177h5.7q1.743-.124,3.508-.178c2.3-.266,4.146-1.069,4.39-3.62a51.862,51.862,0,0,0,.075-6.7c-.1-2.72-.37-4.983-2.4-6.915.189-.854-.372-1.374-.962-1.891a7.21,7.21,0,0,0-3.079-1.747c-.472.16-.46-.125-.362-.506a7.379,7.379,0,0,0,4.332-5.874m-.061-7.043c.5-.022,1.257-.028,1.434.541a24.648,24.648,0,0,1,.063,3.893c-.089.974-.692.844-1.5.829ZM28.7,23.847a15.23,15.23,0,0,0,4.561,0v1.667H28.7ZM21.281,11.034c.161-.517,1-.56,1.452-.522v5.263c-.815.008-1.4.17-1.5-.829-.117-1.219.064-2.672.044-3.912m-.915,5.619a3.2,3.2,0,0,0,2.454.7,7.114,7.114,0,0,0,4.387,5.965v2.018L14.573,23.363c0-.167,1.066-.763,1.272-.922A8.442,8.442,0,0,0,18.5,18.694c.061-.161.178-.756.216-.794s.527-.147.688-.234a2.063,2.063,0,0,0,.962-1.013M1.9,2.178a5.473,5.473,0,0,1,.859.456,13.146,13.146,0,0,0,5.806.684c2.7-.2,5.4-1.472,7.678.658.476.446,1.2,1.688,1.582,1.928.458.288.819.113,1.271.66a4.041,4.041,0,0,1,.656,1.8v1.711a7.142,7.142,0,0,0-1.3-.327c-.4-.017-.718.229-1.117-.11a4.105,4.105,0,0,1-.749-1.269c-.192-.6-.069-1.733-.477-2.068-.525-.432-.766-.04-1.187.132-2.438.994-7.508.79-10.12.3A3.583,3.583,0,0,1,1.9,2.178m.131,4.913a5.213,5.213,0,0,0,1.4.791c-.2.246-.554,1.847-.63,1.914a7.759,7.759,0,0,0-1.036.278,11.029,11.029,0,0,1,.263-2.982M4.6,18.606A14.716,14.716,0,0,0,4,16.657c-.343-.36-1.084,0-1.636-.821a6.658,6.658,0,0,1-.589-3.342,1.517,1.517,0,0,1,.807-1.122c.542-.227,1.075.138,1.468-.376S4.3,8.76,5.066,8.251a26.915,26.915,0,0,0,9.947-.195c0,1.048,1.221,3.08,2.256,3.315.784.177,1.745-.592,2.321.662a5.955,5.955,0,0,1-.363,3.7c-.469.811-.759.538-1.429.764-.519.175-.683,1.54-.9,2.084-2.11,5.287-10.227,5.356-12.3.024m3.927,5.153a9.247,9.247,0,0,0,4.472,0c.338,3.37-4.815,3.355-4.472,0M21.708,28.83a2.515,2.515,0,0,1-.685.015c-1.356-.057-2.876-.349-4.212-.35a.832.832,0,0,0-.836.919l0,12.636c-.249,1.575-1.75,1.3-2.937,1.361-1.362.073-2.754.144-4.128.09a14.692,14.692,0,0,1-2.344-.2,1.489,1.489,0,0,1-1.03-1.251c-.279-2.6.213-5.676-.006-8.329a.75.75,0,0,0-1.419-.29c-.179,3.133.026,6.31-.1,9.457-.224.949-2.289.871-2.248-.221.233-4.059-.3-8.438,0-12.46a5.7,5.7,0,0,1,5.3-5.228,3.825,3.825,0,0,0,7.387-.086l9.774,1.5c.039.164-.055.171-.146.249-.352.3-.844.545-1.216.889-.227.211-1.043,1.268-1.154,1.3m13.659-3.141,2.279,1.536a1.365,1.365,0,0,1-2.162.276,1.755,1.755,0,0,1-.117-1.812m2.086,3.534c.775-.282.623-.681,1.32.209,2.179,2.786.728,8.53,1.159,11.919-.106,1.2-1.021,1.374-2,1.593a40.594,40.594,0,0,1-13.455.087c-1-.184-2.232-.3-2.443-1.506.182-2.992-.235-6.256,0-9.216A6.289,6.289,0,0,1,23.1,29.52c2.485-3.546,6.89-2.294,10.6-2.512a2.765,2.765,0,0,0,3.757,2.215" transform="translate(0 0)" fill="#262626"/>
        <path id="Pfad_93" data-name="Pfad 93" d="M33.7,27.013a2.765,2.765,0,0,0,3.757,2.215c.775-.282.623-.681,1.32.209,2.179,2.786.728,8.53,1.159,11.919-.106,1.2-1.021,1.374-2,1.592a40.567,40.567,0,0,1-13.455.088c-1-.184-2.232-.3-2.443-1.506.182-2.992-.235-6.256,0-9.216A6.277,6.277,0,0,1,23.1,29.525c2.485-3.546,6.89-2.294,10.6-2.512" transform="translate(-0.004 -0.005)" fill="#e3e9ee"/>
        <path id="Pfad_94" data-name="Pfad 94" d="M35.49,27.506a1.755,1.755,0,0,1-.117-1.812l2.278,1.535a1.364,1.364,0,0,1-2.161.277" transform="translate(-0.006 -0.004)" fill="#fbac9c"/>
        <path id="Pfad_95" data-name="Pfad 95" d="M27.016,30.017c2.494.1,5.23-.22,7.7-.027a3.076,3.076,0,0,1,3.026,3.026c.112,1.424.1,2.87-1.628,3.027-3.265.3-6.954-.221-10.265.005-1.786-.077-1.74-1.835-1.619-3.2a3.057,3.057,0,0,1,2.787-2.828" transform="translate(-0.004 -0.005)" fill="#262626"/>
        <path id="Pfad_96" data-name="Pfad 96" d="M29.994,40.54l5.591-.014A.743.743,0,0,1,35.494,42c-1.608.225-3.68-.147-5.338,0a.759.759,0,0,1-.162-1.468" transform="translate(-0.005 -0.007)" fill="#262626"/>
        <path id="Pfad_97" data-name="Pfad 97" d="M29.994,37.557l5.681-.017a.758.758,0,0,1-.179,1.484c-1.544.236-3.645-.158-5.25,0a.754.754,0,0,1-.252-1.465" transform="translate(-0.005 -0.007)" fill="#262626"/>
        <path id="Pfad_98" data-name="Pfad 98" d="M26.221,37.557c.574-.128,1.724-.152,1.777.645.054.824-.927.906-1.525.82a.759.759,0,0,1-.252-1.465" transform="translate(-0.005 -0.007)" fill="#272727"/>
        <path id="Pfad_99" data-name="Pfad 99" d="M26.221,40.54c.5-.147,1.644-.1,1.767.573.221,1.214-2.348,1.278-2.265.072a1.048,1.048,0,0,1,.5-.645" transform="translate(-0.005 -0.007)" fill="#272727"/>
        <path id="Pfad_100" data-name="Pfad 100" d="M25.72,32.757a1.649,1.649,0,0,1,1.457-1.263c2.375.109,4.923-.176,7.276-.013a1.69,1.69,0,0,1,1.6.852,3.914,3.914,0,0,1,.19.512v1.579a.866.866,0,0,1-.132.132H25.852a.867.867,0,0,1-.132-.132,13.051,13.051,0,0,1,0-1.667" transform="translate(-0.005 -0.005)" fill="#50d5be"/>
        <path id="Pfad_101" data-name="Pfad 101" d="M24.492,5.952c.887.563,1.411-.778,2.018-1.141V7.048c0,.483,1.365.895,1.494-.262a29.97,29.97,0,0,1,.04-3.029,5.086,5.086,0,0,1,2.151-.613V5.382a1.033,1.033,0,0,0,.574.657c.252.047.918-.162.918-.394v-2.5a5.58,5.58,0,0,1,2.267.628c.1.155-.032,2.473.011,2.928a.775.775,0,0,0,1.495.348V4.811A6.814,6.814,0,0,1,37.629,8.65a44.079,44.079,0,0,1,0,8.813c-1.249,7.133-12.835,6.792-13.4-.679a61.256,61.256,0,0,1,0-7.284c.039-.573.387-1.583.362-2.015a1.034,1.034,0,0,0-.446-.658c-.026-.344.276-.563.351-.877" transform="translate(-0.004 0)" fill="#e3e9ee"/>
        <path id="Pfad_102" data-name="Pfad 102" d="M22.737,10.514v5.263c-.815.008-1.4.17-1.5-.829-.117-1.219.063-2.672.044-3.912.161-.517,1-.56,1.452-.522" transform="translate(-0.004 -0.002)" fill="#cdd6dc"/>
        <path id="Pfad_103" data-name="Pfad 103" d="M39.232,10.514c.5-.021,1.256-.028,1.433.541a24.409,24.409,0,0,1,.063,3.893c-.089.974-.691.844-1.5.829Z" transform="translate(-0.007 -0.002)" fill="#cdd6dc"/>
        <path id="Pfad_104" data-name="Pfad 104" d="M33.265,23.851v1.667H28.7V23.851a15.237,15.237,0,0,0,4.562,0" transform="translate(-0.005 -0.004)" fill="#cdd6dc"/>
        <path id="Pfad_105" data-name="Pfad 105" d="M28.5,15.8a31.046,31.046,0,0,1,4.8-.021c2.293.258,1.7,4.186-.359,4.466a25.02,25.02,0,0,1-3.852.008C26.9,20.006,26.44,16.145,28.5,15.8" transform="translate(-0.005 -0.003)" fill="#262626"/>
        <path id="Pfad_106" data-name="Pfad 106" d="M28.835,17.27h4.3c.261,0,.171,1.316-.369,1.473-1.057-.047-2.284.126-3.32.024-.956-.094-.813-1.5-.609-1.5" transform="translate(-0.005 -0.003)" fill="#2b56ae"/>
        <path id="Pfad_107" data-name="Pfad 107" d="M33.595,9.836a2.255,2.255,0,0,1,.834,4.43c-3.108.533-3.658-4.027-.834-4.43" transform="translate(-0.006 -0.002)" fill="#262626"/>
        <path id="Pfad_108" data-name="Pfad 108" d="M33.768,11.321a.755.755,0,0,1,.4,1.457.755.755,0,0,1-.4-1.457" transform="translate(-0.006 -0.002)" fill="#4fd4bd"/>
        <path id="Pfad_109" data-name="Pfad 109" d="M27.539,9.834c3.067-.528,3.641,4.025.834,4.43a2.255,2.255,0,0,1-.834-4.43" transform="translate(-0.005 -0.002)" fill="#262626"/>
        <path id="Pfad_110" data-name="Pfad 110" d="M27.8,11.321a.748.748,0,1,1,.075,1.473.748.748,0,0,1-.075-1.473" transform="translate(-0.005 -0.002)" fill="#4fd4bd"/>
        <path id="Pfad_111" data-name="Pfad 111" d="M15.013,8.057c0,1.048,1.222,3.08,2.256,3.315.784.178,1.746-.592,2.322.662a5.962,5.962,0,0,1-.364,3.7c-.469.811-.758.539-1.429.764-.519.175-.683,1.54-.9,2.084-2.109,5.287-10.226,5.356-12.3.024A14.651,14.651,0,0,0,4,16.659c-.343-.361-1.083,0-1.635-.821a6.664,6.664,0,0,1-.59-3.343,1.521,1.521,0,0,1,.808-1.122c.542-.227,1.074.138,1.467-.376S4.3,8.762,5.065,8.252a26.893,26.893,0,0,0,9.947-.195" transform="translate(0 -0.001)" fill="#fbac9c"/>
        <path id="Pfad_112" data-name="Pfad 112" d="M19.751,10.075a7.142,7.142,0,0,0-1.3-.327c-.4-.017-.718.229-1.117-.11a4.129,4.129,0,0,1-.749-1.269c-.192-.6-.069-1.734-.477-2.069-.525-.431-.766-.039-1.187.133-2.438.994-7.508.79-10.12.3A3.583,3.583,0,0,1,1.9,2.178a5.479,5.479,0,0,1,.859.457,13.161,13.161,0,0,0,5.806.684c2.7-.2,5.4-1.472,7.678.658.476.445,1.2,1.688,1.582,1.928.458.287.819.113,1.271.659a4.045,4.045,0,0,1,.656,1.8Z" transform="translate(0 0)" fill="#b16356"/>
        <path id="Pfad_113" data-name="Pfad 113" d="M13,23.764c.338,3.369-4.816,3.355-4.472,0a9.247,9.247,0,0,0,4.472,0" transform="translate(-0.002 -0.004)" fill="#f1a396"/>
        <path id="Pfad_114" data-name="Pfad 114" d="M3.434,7.883C3.233,8.13,2.88,9.73,2.8,9.8a7.768,7.768,0,0,0-1.037.278,11.03,11.03,0,0,1,.264-2.982,5.186,5.186,0,0,0,1.4.791" transform="translate(0 -0.001)" fill="#9f584e"/>
        <path id="Pfad_115" data-name="Pfad 115" d="M24.3,4.668a15.659,15.659,0,0,0-1.525,3.174c-.247,1.095,1.743.094,1.743.094a13.294,13.294,0,0,1,1.307-2.46c.529-.6-1.525-.809-1.525-.809" transform="translate(-0.004 -0.001)" fill="#262626"/>
      </g>
    </g>
  </g>
</svg>
